<svg xmlns="http://www.w3.org/2000/svg" viewBox="0 0 800 800" role="img" aria-label="Bread">
  <defs>
    <linearGradient id="bg" x1="0" y1="0" x2="1" y2="1">
      <stop offset="0%" stop-color="#fff1dd"/>
      <stop offset="100%" stop-color="#f4d3a2"/>
    </linearGradient>
  </defs>
  <rect width="800" height="800" rx="64" fill="url(#bg)"/>
  <path d="M150 430c0-150 115-245 250-245s250 95 250 245v78c0 55-45 100-100 100H250c-55 0-100-45-100-100v-78z" fill="#c88442"/>
  <path d="M205 415c35-30 65-30 100 0M350 385c35-30 65-30 100 0M495 415c35-30 65-30 100 0" stroke="#f6d8b6" stroke-width="16" stroke-linecap="round" fill="none"/>
  <text x="400" y="705" text-anchor="middle" font-family="Arial, sans-serif" font-size="44" font-weight="700" fill="#8a4b16">Brown Bread</text>
</svg>
